<?xml version="1.0" encoding="UTF-8" standalone="no"?>
<svg width="18px" height="18px" viewBox="0 0 18 18" version="1.1" xmlns="http://www.w3.org/2000/svg" xmlns:xlink="http://www.w3.org/1999/xlink">
    <!-- Generator: Sketch 42 (36781) - http://www.bohemiancoding.com/sketch -->
    <title>facebook-2</title>
    <desc>Created with Sketch.</desc>
    <defs></defs>
    <g id="Page-1" stroke="none" stroke-width="1" fill="none" fill-rule="evenodd">
        <g id="detail" transform="translate(-716.000000, -1115.000000)">
            <g id="Footer" transform="translate(0.000000, 1091.000000)">
                <g id="Group-6" transform="translate(615.000000, 24.000000)">
                    <g id="Group-12">
                        <g id="facebook-2" transform="translate(101.000000, 0.000000)">
                            <g id="Layer_1">
                                <g id="Group">
                                    <path d="M18,16.875 C18,17.496 17.496,18 16.875,18 L1.125,18 C0.504,18 0,17.496 0,16.875 L0,1.125 C0,0.504 0.504,0 1.125,0 L16.875,0 C17.496,0 18,0.504 18,1.125 L18,16.875 L18,16.875 Z" id="Shape" fill="#000000"></path>
                                    <path d="M12.375,18 L12.375,11.25 L14.625,11.25 L15.1875,8.4375 L12.375,8.4375 L12.375,7.3125 C12.375,6.1875 12.938625,5.625 14.0625,5.625 L15.1875,5.625 L15.1875,2.8125 L12.9375,2.8125 C10.8703125,2.8125 9.5625,4.4330625 9.5625,6.75 L9.5625,8.4375 L7.3125,8.4375 L7.3125,11.25 L9.5625,11.25 L9.5625,18 L12.375,18 L12.375,18 Z" id="f" fill="#FFFFFF"></path>
                                </g>
                            </g>
                        </g>
                    </g>
                </g>
            </g>
        </g>
    </g>
</svg>