<?xml version="1.0" encoding="UTF-8" standalone="no"?>
<svg width="18px" height="18px" viewBox="0 0 18 18" version="1.1" xmlns="http://www.w3.org/2000/svg" xmlns:xlink="http://www.w3.org/1999/xlink">
    <!-- Generator: Sketch 42 (36781) - http://www.bohemiancoding.com/sketch -->
    <title>linkedin-1</title>
    <desc>Created with Sketch.</desc>
    <defs></defs>
    <g id="Page-1" stroke="none" stroke-width="1" fill="none" fill-rule="evenodd">
        <g id="detail" transform="translate(-615.000000, -1115.000000)">
            <g id="Footer" transform="translate(0.000000, 1091.000000)">
                <g id="Group-6" transform="translate(615.000000, 24.000000)">
                    <g id="Group-12">
                        <g id="linkedin-1">
                            <g id="Layer_1">
                                <g id="Group">
                                    <path d="M18,16.875 C18,17.496 17.496,18 16.875,18 L1.125,18 C0.504,18 0,17.496 0,16.875 L0,1.125 C0,0.504 0.504,0 1.125,0 L16.875,0 C17.496,0 18,0.504 18,1.125 L18,16.875 L18,16.875 Z" id="Shape" fill="#000000"></path>
                                    <g transform="translate(3.937500, 3.375000)" fill="#FFFFFF">
                                        <rect id="Rectangle-path" x="0" y="2.8125" width="2.25" height="7.875"></rect>
                                        <path d="M7.5931875,2.8125 C6.02325,2.8125 5.75325,3.385125 5.625,3.9375 L5.625,2.8125 L3.375,2.8125 L3.375,10.6875 L5.625,10.6875 L5.625,6.1875 C5.625,5.4579375 6.0204375,5.0625 6.75,5.0625 C7.462125,5.0625 7.875,5.4495 7.875,6.1875 L7.875,10.6875 L10.125,10.6875 L10.125,6.75 C10.125,4.5 9.8319375,2.8125 7.5931875,2.8125 L7.5931875,2.8125 Z" id="Shape"></path>
                                        <circle id="Oval" cx="1.125" cy="1.125" r="1.125"></circle>
                                    </g>
                                </g>
                            </g>
                        </g>
                    </g>
                </g>
            </g>
        </g>
    </g>
</svg>