<?xml version="1.0" encoding="UTF-8" standalone="no"?>
<svg width="24px" height="25px" viewBox="0 0 24 25" version="1.1" xmlns="http://www.w3.org/2000/svg" xmlns:xlink="http://www.w3.org/1999/xlink">
    <!-- Generator: Sketch 42 (36781) - http://www.bohemiancoding.com/sketch -->
    <title>share</title>
    <desc>Created with Sketch.</desc>
    <defs></defs>
    <g id="Page-1" stroke="none" stroke-width="1" fill="none" fill-rule="evenodd">
        <g id="Desktop-HD-Copy" transform="translate(-1296.000000, -72.000000)" fill="#0088CC">
            <g id="Share" transform="translate(1237.000000, 69.000000)">
                <g id="share" transform="translate(59.000000, 3.000000)">
                    <g id="Outline_Icons">
                        <path d="M19.5,15.3015567 C17.957,15.3015567 16.552,16.0931572 15.726,17.3978699 L8.721,13.8244464 C8.906,13.3154146 9,12.7849606 9,12.2412453 C9,11.6965099 8.906,11.166056 8.722,10.6580443 L15.726,7.08564084 C16.552,8.38933347 17.957,9.180934 19.5,9.180934 C21.981,9.180934 24,7.12134447 24,4.590467 C24,2.05958953 21.981,0 19.5,0 C17.019,0 15,2.05958953 15,4.590467 C15,5.13316221 15.095,5.66361617 15.279,6.17264796 L8.267,9.75015191 C7.442,8.44645928 6.043,7.65077833 4.5,7.65077833 C2.019,7.65077833 0,9.71036786 0,12.2412453 C0,14.7721228 2.019,16.8317123 4.5,16.8317123 C6.043,16.8317123 7.442,16.0360314 8.267,14.7323388 L15.283,18.3108628 C14.805,19.6278168 14.938,21.0865652 15.676,22.3045691 C16.5,23.6684479 17.93,24.4824907 19.5,24.4824907 C21.981,24.4824907 24,22.4229011 24,19.8920237 C24,17.3611462 21.981,15.3015567 19.5,15.3015567 L19.5,15.3015567 Z M19.5,1.02010378 C21.43,1.02010378 23,2.62166671 23,4.590467 C23,6.55926729 21.43,8.16083022 19.5,8.16083022 C18.17,8.16083022 16.971,7.40391322 16.372,6.1838691 C16.372,6.1838691 16.372,6.1838691 16.371,6.182849 C16.125,5.67891773 16,5.14234314 16,4.590467 C16,2.62166671 17.57,1.02010378 19.5,1.02010378 L19.5,1.02010378 Z M19.5,1.02010378 C21.43,1.02010378 23,2.62166671 23,4.590467 C23,6.55926729 21.43,8.16083022 19.5,8.16083022 C18.17,8.16083022 16.971,7.40391322 16.372,6.1838691 C16.372,6.1838691 16.372,6.1838691 16.371,6.182849 C16.125,5.67891773 16,5.14234314 16,4.590467 C16,2.62166671 17.57,1.02010378 19.5,1.02010378 L19.5,1.02010378 Z M4.5,15.8116086 C2.57,15.8116086 1,14.2100456 1,12.2412453 C1,10.272445 2.57,8.67088211 4.5,8.67088211 C5.831,8.67088211 7.029,9.42779912 7.627,10.645803 L7.627,10.6468231 C7.875,11.1497343 8,11.6863089 8,12.2412453 C8,12.7941416 7.874,13.3307162 7.627,13.8356675 C7.029,15.0546916 5.831,15.8116086 4.5,15.8116086 L4.5,15.8116086 Z M4.5,15.8116086 C2.57,15.8116086 1,14.2100456 1,12.2412453 C1,10.272445 2.57,8.67088211 4.5,8.67088211 C5.831,8.67088211 7.029,9.42779912 7.627,10.645803 L7.627,10.6468231 C7.875,11.1497343 8,11.6863089 8,12.2412453 C8,12.7941416 7.874,13.3307162 7.627,13.8356675 C7.029,15.0546916 5.831,15.8116086 4.5,15.8116086 L4.5,15.8116086 Z M19.5,23.4623869 C18.279,23.4623869 17.168,22.8289024 16.525,21.7690146 C15.882,20.7070866 15.825,19.4095146 16.372,18.2976015 C16.971,17.0785774 18.17,16.3216604 19.5,16.3216604 C21.43,16.3216604 23,17.9232234 23,19.8920237 C23,21.860824 21.43,23.4623869 19.5,23.4623869 L19.5,23.4623869 Z M19.5,23.4623869 C18.279,23.4623869 17.168,22.8289024 16.525,21.7690146 C15.882,20.7070866 15.825,19.4095146 16.372,18.2976015 C16.971,17.0785774 18.17,16.3216604 19.5,16.3216604 C21.43,16.3216604 23,17.9232234 23,19.8920237 C23,21.860824 21.43,23.4623869 19.5,23.4623869 L19.5,23.4623869 Z" id="Shape"></path>
                    </g>
                </g>
            </g>
        </g>
    </g>
</svg>