<?xml version="1.0" encoding="UTF-8" standalone="no"?>
<svg width="20px" height="17px" viewBox="0 0 20 17" version="1.1" xmlns="http://www.w3.org/2000/svg" xmlns:xlink="http://www.w3.org/1999/xlink">
    <!-- Generator: Sketch 42 (36781) - http://www.bohemiancoding.com/sketch -->
    <title>twitter-1</title>
    <desc>Created with Sketch.</desc>
    <defs></defs>
    <g id="Page-1" stroke="none" stroke-width="1" fill="none" fill-rule="evenodd">
        <g id="detail" transform="translate(-665.000000, -1115.000000)" fill="#000000">
            <g id="Footer" transform="translate(0.000000, 1091.000000)">
                <g id="Group-6" transform="translate(615.000000, 24.000000)">
                    <g id="Group-12">
                        <g id="twitter-1" transform="translate(50.000000, 0.000000)">
                            <g id="Layer_1">
                                <path d="M19.995625,1.923125 C19.26,2.25 18.47,2.470625 17.639375,2.56875 C18.48625,2.06125 19.136875,1.2575 19.44375,0.3 C18.650625,0.769375 17.773125,1.111875 16.83875,1.295 C16.09,0.498125 15.02375,0 13.843125,0 C11.5775,0 9.741875,1.83625 9.741875,4.101875 C9.741875,4.423125 9.7775,4.736875 9.8475,5.036875 C6.438125,4.865625 3.415625,3.2325 1.391875,0.750625 C1.039375,1.356875 0.836875,2.06125 0.836875,2.813125 C0.836875,4.236875 1.56125,5.491875 2.66125,6.228125 C1.989375,6.20625 1.356875,6.0225 0.80375,5.715 C0.803125,5.731875 0.803125,5.75 0.803125,5.76625 C0.803125,7.754375 2.216875,9.4125 4.09375,9.789375 C3.75,9.8825 3.3875,9.933125 3.013125,9.933125 C2.748125,9.933125 2.491875,9.9075 2.241875,9.86 C2.763125,11.48875 4.27875,12.675 6.073125,12.70875 C4.67,13.80875 2.90125,14.465625 0.979375,14.465625 C0.648125,14.465625 0.32125,14.44625 0.000625,14.408125 C1.815625,15.570625 3.971875,16.25 6.28875,16.25 C13.83375,16.25 17.960625,9.999375 17.960625,4.578125 C17.960625,4.400625 17.955625,4.223125 17.948125,4.046875 C18.75,3.46875 19.445,2.746875 19.995625,1.923125 L19.995625,1.923125 Z" id="Shape"></path>
                            </g>
                        </g>
                    </g>
                </g>
            </g>
        </g>
    </g>
</svg>